<svg xmlns="http://www.w3.org/2000/svg" xmlns:xlink="http://www.w3.org/1999/xlink" viewBox="0,0,256,256" width="60px" height="60px"><g fill="none" fill-rule="nonzero" stroke="none" stroke-width="1" stroke-linecap="butt" stroke-linejoin="miter" stroke-miterlimit="10" stroke-dasharray="" stroke-dashoffset="0" font-family="none" font-weight="none" font-size="none" text-anchor="none" style="mix-blend-mode: normal"><g transform="scale(2.13333,2.13333)"><path d="M50.726,111.136l-39.498,-16.458c-4.258,-1.774 -4.343,-7.777 -0.136,-9.67l38.601,-17.37c6.544,-2.945 14.046,-2.89 20.546,0.15l38.735,18.114c4.18,1.955 4.007,7.958 -0.279,9.668l-39.363,15.707c-5.982,2.386 -12.661,2.336 -18.606,-0.141z" fill="#000000" opacity="0.35"></path><path d="M50.726,107.136l-39.498,-16.458c-4.258,-1.774 -4.343,-7.777 -0.136,-9.67l38.601,-17.37c6.544,-2.945 14.046,-2.89 20.546,0.15l38.735,18.114c4.18,1.955 4.007,7.958 -0.279,9.668l-39.363,15.707c-5.982,2.386 -12.661,2.336 -18.606,-0.141z" fill="#5a00ff"></path><path d="M112,87l-52,12l-52,-13v-16l104,1z" fill="#5a00ff"></path><path d="M50.726,95.136l-39.498,-16.458c-4.258,-1.774 -4.343,-7.777 -0.136,-9.67l38.601,-17.37c6.544,-2.945 14.046,-2.89 20.546,0.15l38.735,18.114c4.18,1.955 4.007,7.958 -0.279,9.668l-39.363,15.706c-5.982,2.387 -12.661,2.337 -18.606,-0.14z" fill="#000000" opacity="0.35"></path><path d="M50.726,91.136l-39.498,-16.458c-4.258,-1.774 -4.343,-7.777 -0.136,-9.67l38.601,-17.37c6.544,-2.945 14.046,-2.89 20.546,0.15l38.735,18.114c4.18,1.955 4.007,7.958 -0.279,9.668l-39.363,15.706c-5.982,2.387 -12.661,2.337 -18.606,-0.14z" fill="#7648ca"></path><path d="M54,41v34.513h0.001c0.012,1.927 2.693,3.487 5.999,3.487c3.306,0 5.987,-1.56 5.999,-3.487h0.001v-34.513z" fill="#000000" opacity="0.35"></path><path d="M54,38v34.513h0.001c0.012,1.927 2.693,3.487 5.999,3.487c3.306,0 5.987,-1.56 5.999,-3.487h0.001v-34.513z" fill="#a4e2f1"></path><circle cx="60" cy="30" r="15" fill="#000000" opacity="0.35"></circle><ellipse cx="27" cy="71.5" rx="6" ry="3.5" fill="#000000" opacity="0.35"></ellipse><ellipse cx="27" cy="68.5" rx="6" ry="3.5" fill="#a4e2f1"></ellipse><circle cx="60" cy="26" r="15" fill="#ff6363"></circle></g></g></svg>